<?xml version="1.0" encoding="UTF-8" standalone="no"?>
<!DOCTYPE svg PUBLIC "-//W3C//DTD SVG 1.1//EN" "http://www.w3.org/Graphics/SVG/1.1/DTD/svg11.dtd">
<svg width="100%" height="100%" viewBox="0 0 1604 1602" version="1.1" xmlns="http://www.w3.org/2000/svg" xmlns:xlink="http://www.w3.org/1999/xlink" xml:space="preserve" style="fill-rule:evenodd;clip-rule:evenodd;stroke-linejoin:round;stroke-miterlimit:1.41421;">
    <g>
        <path d="M561.644,255.204C562.404,254.444 562.404,253.38 561.036,253.684C560.124,253.836 559.212,253.836 558.148,253.836C558.452,252.62 558.452,251.556 558.604,250.34C559.364,239.396 554.956,238.484 551.308,233.62C548.268,229.516 545.684,228.3 541.124,228.604C534.132,229.06 527.292,234.076 521.668,241.068C517.108,246.692 511.332,251.708 505.252,252.62C505.252,251.86 505.404,251.1 505.404,250.34C506.164,239.396 501.604,238.484 498.108,233.62C495.068,229.364 492.484,228.148 487.924,228.604C478.804,229.364 469.532,238.028 463.604,248.364C456.916,260.22 454.484,273.596 461.324,282.564C467.404,290.468 474.852,290.772 480.324,288.948C491.572,285.3 500.996,269.948 504.188,256.876C507.532,256.876 510.724,256.268 513.612,254.9C509.508,265.084 509.052,275.268 514.524,282.564C520.452,290.468 528.204,290.772 533.676,288.948C544.772,285.3 554.196,269.948 557.388,257.028C559.212,256.876 560.732,256.268 561.644,255.204ZM496.436,239.7C496.74,242.436 496.588,246.236 495.524,250.796C492.484,248.516 491.268,244.564 491.876,240.308C492.484,235.748 495.828,234.836 496.436,239.7ZM548.724,250.948C546.292,248.668 544.468,244.26 545.228,240.156C545.988,235.748 549.028,234.836 549.636,239.7C549.94,242.436 549.788,246.236 548.724,250.948ZM547.508,254.9C546.292,258.7 544.468,262.956 542.036,267.364C534.588,281.044 525.316,286.516 521.364,283.02C517.564,279.676 519.388,265.54 525.924,254.14C529.268,248.364 533.524,243.196 537.628,240.004C537.628,245.476 541.276,250.796 544.772,253.228C545.532,253.988 546.444,254.596 547.508,254.9ZM484.428,240.004C484.428,246.388 489.444,252.164 494.308,254.748C493.244,258.548 491.268,262.804 488.836,267.364C481.388,281.044 472.268,286.212 468.164,283.02C463.908,279.676 466.188,265.54 472.724,254.14C476.068,248.364 480.324,243.196 484.428,240.004Z" style="fill:black;"/>
        <path d="M710.452,274.964C712.276,270.708 711.972,266.908 711.212,265.084C710.604,263.564 709.54,263.868 708.932,265.084C703.916,276.484 696.164,286.364 689.932,286.06C685.372,285.908 683.396,279.828 686.132,271.468C688.716,263.412 696.316,253.228 703.612,245.02C708.172,239.852 704.22,233.012 701.332,229.668C699.964,228.148 698.9,228.604 696.924,229.972C691.3,233.924 685.676,236.508 680.356,236.964C684.46,227.084 685.98,217.66 680.964,217.964C674.732,218.268 659.836,238.788 671.236,243.348C661.812,266.908 645.852,285.604 636.732,285.908C630.5,286.06 628.372,276.788 633.54,265.388C639.316,252.62 648.132,238.028 654.06,227.692C658.164,227.388 661.964,227.388 665.004,227.54C667.284,227.692 668.044,226.932 667.132,225.26C665.764,222.828 662.876,220.244 658.012,219.94C661.66,211.884 661.812,206.564 660.14,202.46C659.38,200.484 657.86,200.332 656.492,202.46C653.756,205.804 649.652,212.948 644.94,221.308C641.292,221.612 637.34,222.068 632.476,221.764C630.196,221.612 629.436,222.828 630.804,224.804C632.172,226.78 635.516,228.908 640.532,229.06C633.996,240.764 627.46,253.684 624.42,261.132C617.124,278.612 625.332,290.164 635.516,290.164C651.476,290.164 667.284,267.212 677.316,244.26C682.332,244.26 689.02,242.74 695.86,238.484C689.324,245.78 680.052,257.18 676.86,267.364C673.06,279.524 677.62,290.012 689.172,290.468C697.532,290.772 706.652,284.084 710.452,274.964Z" style="fill:black;"/>
        <path d="M970.524,274.508C972.348,270.252 972.044,266.3 971.284,264.628C970.676,263.26 969.612,263.564 969.004,264.78C964.14,276.028 956.388,286.06 950.004,285.756C945.444,285.604 943.62,279.524 946.204,271.164C948.788,262.956 956.54,252.62 963.684,244.716C968.244,239.7 964.444,232.404 961.404,229.06C960.34,227.54 958.972,228.3 957.148,229.516C951.22,233.468 945.9,235.9 940.58,236.66C944.38,226.78 945.9,217.508 941.188,217.66C934.804,217.964 919.908,238.18 931.612,243.044C923.252,262.348 906.532,286.364 889.812,285.604C882.06,285.3 878.26,275.42 883.124,261.588C893.764,270.1 903.948,266.3 911.092,257.028C917.172,249.276 918.692,240.308 916.108,236.66C913.676,233.316 910.94,231.188 907.14,228.908C899.54,224.5 884.036,233.012 874.46,251.86C864.58,271.316 871.116,290.164 890.42,289.86C908.508,289.556 924.924,270.404 937.54,243.956C942.252,243.956 949.092,242.436 955.78,238.18C949.244,245.476 940.124,256.724 936.932,266.908C933.132,279.22 937.692,289.556 949.244,290.164C957.604,290.62 966.724,283.628 970.524,274.508ZM884.492,258.244C884.948,257.484 885.252,256.42 885.708,255.66C892.7,241.676 905.164,232.1 908.508,234.988C910.484,236.66 907.292,244.564 902.428,250.796C897.868,256.572 891.94,262.804 884.492,258.244Z" style="fill:black;"/>
        <text x="419.22px" y="287.884px" style="font-family:'SignPainter-HouseScript', 'SignPainter';font-size:152px;fill:black;">f<tspan x="561.492px 707.108px 767.452px " y="287.884px 287.884px 287.884px ">duc</tspan>k</text>
    </g>
</svg>
