<?xml version="1.0" encoding="UTF-8" standalone="no"?>
<svg width="32px" height="25px" viewBox="53 734 32 25" version="1.1" xmlns="http://www.w3.org/2000/svg" xmlns:xlink="http://www.w3.org/1999/xlink">
    <defs></defs>
    <g id="fi-mail" stroke="none" stroke-width="1" fill="none" fill-rule="evenodd" transform="translate(53.000000, 734.000000)">
        <g id="Layer_1" fill="#C8C8C8">
            <g id="Group">
                <path d="M30.7462564,0.0763795987 L1.25374359,0.0763795987 C0.675282051,0.0763795987 0.205128205,0.539910814 0.205128205,1.10972687 L0.205128205,3.18854515 C0.205128205,3.28432274 0.310564103,3.3942447 0.396717949,3.43869844 L15.8986667,12.1609253 C15.9388718,12.1839604 15.984,12.1944677 16.0291282,12.1944677 C16.0750769,12.1944677 16.1214359,12.182748 16.1620513,12.1589047 L31.1954872,3.44718506 C31.28,3.4007107 31.504,3.27785674 31.5881026,3.22127926 C31.6898462,3.15298216 31.7948718,3.09115106 31.7948718,2.96870123 L31.7948718,1.10932274 C31.7948718,0.539910814 31.3247179,0.0763795987 30.7462564,0.0763795987 L30.7462564,0.0763795987 Z" id="Shape"></path>
                <path d="M31.664,6.32293757 C31.5819487,6.27605909 31.4818462,6.27807971 31.3993846,6.32455407 L22.8918974,11.2552815 C22.8237949,11.2940775 22.7766154,11.3627787 22.7651282,11.4403707 C22.7548718,11.5175585 22.7794872,11.5963629 22.8324103,11.6533445 L31.3411282,20.688364 C31.3915897,20.7421126 31.4605128,20.7708055 31.5327179,20.7708055 C31.5651282,20.7708055 31.5979487,20.7647436 31.6287179,20.7534281 C31.7292308,20.714228 31.7948718,20.6192586 31.7948718,20.5125697 L31.7948718,6.54722687 C31.7948718,6.45427815 31.7452308,6.3690078 31.664,6.32293757 L31.664,6.32293757 Z" id="Shape"></path>
                <path d="M20.4402051,12.910981 C20.3565128,12.8216695 20.2219487,12.8018673 20.1156923,12.8632943 L16.705641,14.839869 C16.3052308,15.0718367 15.7924103,15.0738573 15.3895385,14.8483556 L12.3885128,13.1595178 C12.2892308,13.1041527 12.1641026,13.1174889 12.0804103,13.1942726 L0.684307692,23.6069537 C0.623589744,23.662723 0.593230769,23.7431438 0.60225641,23.8243729 C0.611282051,23.905602 0.659282051,23.9783445 0.731076923,24.0191611 C0.908307692,24.1218088 1.07938462,24.1707079 1.25333333,24.1707079 L30.4443077,24.1707079 C30.5489231,24.1707079 30.6432821,24.1096851 30.6843077,24.0151198 C30.7261538,23.9213629 30.7072821,23.811845 30.6358974,23.7366778 L20.4402051,12.910981 L20.4402051,12.910981 Z" id="Shape"></path>
                <path d="M9.57292308,11.9625 C9.63446154,11.9071349 9.66523077,11.8255017 9.65620513,11.7442726 C9.64717949,11.6626394 9.59794872,11.590301 9.52574359,11.5490803 L0.596102564,6.525 C0.516512821,6.47973802 0.416,6.48054627 0.334769231,6.5266165 C0.254358974,6.57268673 0.205128205,6.65795708 0.205128205,6.74969342 L0.205128205,19.9322464 C0.205128205,20.03449 0.266666667,20.1274387 0.361846154,20.1682553 C0.395487179,20.1832079 0.431179487,20.1904822 0.467282051,20.1904822 C0.531692308,20.1904822 0.596102564,20.1666388 0.645333333,20.1213768 L9.57292308,11.9625 L9.57292308,11.9625 Z" id="Shape"></path>
            </g>
        </g>
    </g>
</svg>
